<svg width="24" height="24" viewBox="0 0 24 24" fill="none" xmlns="http://www.w3.org/2000/svg">
<circle cx="12" cy="12" r="11.75" stroke="#E3E3E3" stroke-width="0.5"/>
<path d="M22.2759 7.435C22.2759 8.01833 22.0892 8.66 21.7159 9.36C21.3659 10.0367 20.8525 10.6783 20.1759 11.285C19.4992 11.8683 18.6709 12.3583 17.6909 12.755C16.7342 13.1283 15.6375 13.315 14.4009 13.315C13.8175 13.315 13.3042 13.2333 12.8609 13.07C12.7909 13.0233 12.7559 12.9767 12.7559 12.93C12.7559 12.8367 12.8025 12.79 12.8959 12.79C13.0125 12.8367 13.2225 12.8833 13.5259 12.93C13.8525 12.9767 14.1559 13 14.4359 13C15.3225 13 16.1392 12.825 16.8859 12.475C17.6559 12.125 18.3092 11.67 18.8459 11.11C19.4059 10.55 19.8375 9.92 20.1409 9.22C20.4675 8.52 20.6309 7.82 20.6309 7.12C20.6309 6.14 20.3275 5.475 19.7209 5.125C19.1375 4.775 18.4259 4.6 17.5859 4.6C17.0025 4.6 16.4775 4.65833 16.0109 4.775C15.7075 4.86833 15.4742 5.06667 15.3109 5.37C14.8675 6.11667 14.3309 7.015 13.7009 8.065C13.0942 9.09167 12.4759 10.165 11.8459 11.285C11.2159 12.3817 10.6092 13.455 10.0259 14.505C9.44253 15.555 8.95253 16.465 8.55586 17.235C8.29919 17.7483 8.17086 18.1683 8.17086 18.495C8.17086 18.9383 8.35753 19.2533 8.73086 19.44C9.10419 19.6033 9.66419 19.685 10.4109 19.685C10.6675 19.685 10.7959 19.72 10.7959 19.79C10.7959 19.86 10.7375 19.9067 10.6209 19.93C10.2009 20 9.72253 20.0583 9.18586 20.105C8.67253 20.1517 8.15919 20.175 7.64586 20.175C7.55253 20.175 7.40086 20.1633 7.19086 20.14C7.00419 20.1167 6.81753 20.07 6.63086 20C6.44419 19.9533 6.28086 19.8833 6.14086 19.79C6.00086 19.6733 5.93086 19.5217 5.93086 19.335C5.93086 19.195 5.98919 18.985 6.10586 18.705C6.43253 17.9817 6.86419 17.165 7.40086 16.255C7.93753 15.345 8.45086 14.4817 8.94086 13.665C9.52419 12.685 10.1542 11.6 10.8309 10.41C11.5075 9.19667 12.1025 8.11167 12.6159 7.155C12.6625 7.085 12.7325 6.95667 12.8259 6.77C12.9192 6.56 13.0125 6.35 13.1059 6.14C13.1992 5.93 13.2809 5.73167 13.3509 5.545C13.4209 5.35833 13.4559 5.23 13.4559 5.16C13.4559 5.06667 13.3975 5.02 13.2809 5.02C12.5342 5.04333 11.7992 5.10167 11.0759 5.195C10.3759 5.28833 9.65253 5.335 8.90586 5.335C8.46253 5.335 8.24086 5.20667 8.24086 4.95C8.24086 4.90333 8.27586 4.78667 8.34586 4.6C8.43919 4.39 8.52086 4.285 8.59086 4.285C8.63753 4.285 8.67253 4.33167 8.69586 4.425C8.71919 4.54167 8.85919 4.62333 9.11586 4.67C9.32586 4.71667 9.58253 4.75167 9.88586 4.775C10.1892 4.775 10.4809 4.775 10.7609 4.775C11.4609 4.775 12.1725 4.75167 12.8959 4.705C13.6192 4.65833 14.2959 4.6 14.9259 4.53C15.5792 4.46 16.1509 4.40167 16.6409 4.355C17.1542 4.30833 17.5509 4.285 17.8309 4.285C18.3442 4.285 18.8575 4.33167 19.3709 4.425C19.9075 4.51833 20.3859 4.69333 20.8059 4.95C21.2492 5.18333 21.5992 5.51 21.8559 5.93C22.1359 6.32667 22.2759 6.82833 22.2759 7.435Z" fill="#E3E3E3"/>
</svg>
