<svg width="24" height="24" viewBox="0 0 24 24" fill="none" xmlns="http://www.w3.org/2000/svg">
<circle cx="12" cy="12" r="11.75" stroke="#E3E3E3" stroke-width="0.5"/>
<path d="M14.1206 4.425C15.1706 4.425 16.0923 4.46 16.8856 4.53C17.7023 4.57667 18.3673 4.705 18.8806 4.915C19.4173 5.125 19.8139 5.41667 20.0706 5.79C20.3506 6.16333 20.4906 6.665 20.4906 7.295C20.4906 7.62167 20.4089 8.00667 20.2456 8.45C20.0823 8.89333 19.8023 9.33667 19.4056 9.78C19.0323 10.2 18.5306 10.6083 17.9006 11.005C17.2706 11.3783 16.5006 11.67 15.5906 11.88C15.5439 11.88 15.5206 11.915 15.5206 11.985C15.5206 12.0317 15.5439 12.055 15.5906 12.055C15.9173 12.125 16.2789 12.2067 16.6756 12.3C17.0723 12.37 17.4456 12.51 17.7956 12.72C18.1456 12.9067 18.4373 13.1633 18.6706 13.49C18.9273 13.7933 19.0556 14.2133 19.0556 14.75C19.0556 15.4033 18.8806 16.0683 18.5306 16.745C18.1806 17.3983 17.6789 17.9933 17.0256 18.53C16.3956 19.0667 15.6139 19.51 14.6806 19.86C13.7706 20.1867 12.7323 20.35 11.5656 20.35C10.8889 20.35 10.1656 20.28 9.39559 20.14C8.62559 20.0233 7.91392 19.8017 7.26059 19.475C7.09725 19.3817 6.94559 19.3117 6.80559 19.265C6.66559 19.195 6.54892 19.16 6.45559 19.16C6.26892 19.16 5.97725 19.2533 5.58059 19.44C5.18392 19.6267 4.82225 19.8483 4.49559 20.105L4.28559 19.93C4.58892 19.6033 4.78725 19.37 4.88059 19.23C4.99725 19.0667 5.09059 18.9267 5.16059 18.81C5.53392 18.18 5.91892 17.5267 6.31559 16.85C6.71225 16.15 7.08559 15.4733 7.43559 14.82C7.80892 14.1433 8.15892 13.5017 8.48559 12.895C8.83559 12.265 9.15059 11.705 9.43059 11.215C9.64059 10.795 9.88559 10.3283 10.1656 9.815C10.4689 9.27833 10.7606 8.73 11.0406 8.17C11.3439 7.61 11.6239 7.06167 11.8806 6.525C12.1606 5.965 12.4056 5.46333 12.6156 5.02C12.6389 4.97333 12.6506 4.915 12.6506 4.845C12.6506 4.775 12.5806 4.74 12.4406 4.74C12.1139 4.74 11.7523 4.76333 11.3556 4.81C10.9589 4.85667 10.5739 4.915 10.2006 4.985C9.82725 5.03167 9.47725 5.07833 9.15059 5.125C8.82392 5.17167 8.56725 5.195 8.38059 5.195C8.00725 5.195 7.82059 5.07833 7.82059 4.845C7.82059 4.58833 7.89059 4.39 8.03059 4.25C8.07725 4.25 8.11225 4.285 8.13559 4.355C8.18225 4.425 8.27559 4.47167 8.41559 4.495C8.57892 4.51833 8.95225 4.53 9.53559 4.53C10.2823 4.53 10.9823 4.51833 11.6356 4.495C12.3123 4.44833 13.1406 4.425 14.1206 4.425ZM18.8106 6.98C18.8106 6.53667 18.7173 6.175 18.5306 5.895C18.3439 5.59167 18.0989 5.35833 17.7956 5.195C17.4923 5.03167 17.1539 4.92667 16.7806 4.88C16.4073 4.81 16.0339 4.775 15.6606 4.775C15.4039 4.775 15.1589 4.81 14.9256 4.88C14.7156 4.92667 14.5289 5.055 14.3656 5.265C14.1089 5.59167 13.8406 5.98833 13.5606 6.455C13.3039 6.89833 13.0589 7.31833 12.8256 7.715C12.0556 9.09167 11.2273 10.6317 10.3406 12.335C9.45392 14.0383 8.56725 15.765 7.68059 17.515C7.56392 17.7483 7.49392 17.9583 7.47059 18.145C7.47059 18.285 7.52892 18.46 7.64559 18.67C7.76225 18.88 7.94892 19.09 8.20559 19.3C8.48559 19.4867 8.83559 19.65 9.25559 19.79C9.67559 19.93 10.2006 20 10.8306 20C11.6239 19.9767 12.4056 19.825 13.1756 19.545C13.9689 19.2417 14.6806 18.845 15.3106 18.355C15.9406 17.8417 16.4423 17.2467 16.8156 16.57C17.2123 15.87 17.4106 15.1233 17.4106 14.33C17.4106 13.6533 17.1539 13.14 16.6406 12.79C16.1273 12.4167 15.4039 12.2067 14.4706 12.16C14.1439 12.16 13.7823 12.2067 13.3856 12.3C12.9889 12.37 12.6389 12.405 12.3356 12.405C12.2656 12.3817 12.2073 12.3583 12.1606 12.335C12.1373 12.2883 12.1256 12.195 12.1256 12.055C12.1256 11.9383 12.1606 11.845 12.2306 11.775C12.3006 11.6817 12.3939 11.635 12.5106 11.635C12.7673 11.635 13.0123 11.67 13.2456 11.74C13.4789 11.81 13.7239 11.845 13.9806 11.845C14.1906 11.845 14.4239 11.8333 14.6806 11.81C14.9606 11.7633 15.1939 11.705 15.3806 11.635C15.8006 11.4483 16.2089 11.215 16.6056 10.935C17.0256 10.6317 17.3989 10.2817 17.7256 9.885C18.0523 9.48833 18.3089 9.045 18.4956 8.555C18.7056 8.065 18.8106 7.54 18.8106 6.98Z" fill="#E3E3E3"/>
</svg>
