<svg width="24" height="24" viewBox="0 0 24 24" fill="none" xmlns="http://www.w3.org/2000/svg">
<circle cx="12" cy="12" r="11.75" stroke="#E3E3E3" stroke-width="0.5"/>
<path d="M20.6847 9.01C20.7314 8.89333 20.7664 8.71833 20.7897 8.485C20.8364 8.22833 20.8597 8.00667 20.8597 7.82C20.8597 7.47 20.8014 7.10833 20.6847 6.735C20.5681 6.36167 20.3464 6.02333 20.0197 5.72C19.7164 5.41667 19.2964 5.17167 18.7597 4.985C18.2464 4.79833 17.5697 4.705 16.7297 4.705C16.0531 4.705 15.4231 4.845 14.8397 5.125C14.2564 5.38167 13.7081 5.69667 13.1947 6.07C12.6114 6.49 11.9464 7.10833 11.1997 7.925C10.4764 8.74167 9.78806 9.66333 9.13473 10.69C8.48139 11.6933 7.93306 12.7667 7.48973 13.91C7.06973 15.03 6.85973 16.1267 6.85973 17.2C6.85973 17.7833 6.96473 18.2617 7.17473 18.635C7.38473 19.0083 7.65306 19.3 7.97973 19.51C8.32973 19.72 8.72639 19.8717 9.16973 19.965C9.61306 20.035 10.0681 20.07 10.5347 20.07C12.4947 20.07 14.2797 19.5567 15.8897 18.53C17.4997 17.48 19.0281 15.9633 20.4747 13.98C20.5447 13.8867 20.6031 13.84 20.6497 13.84C20.7431 13.84 20.7897 14.0033 20.7897 14.33C20.7897 14.5167 20.7547 14.68 20.6847 14.82C20.6381 14.9367 20.5797 15.0533 20.5097 15.17C19.4364 16.78 18.0131 18.0517 16.2397 18.985C14.4897 19.895 12.5647 20.35 10.4647 20.35C9.78806 20.35 9.13473 20.28 8.50473 20.14C7.89806 20.0233 7.34973 19.8133 6.85973 19.51C6.39306 19.1833 6.01973 18.7633 5.73973 18.25C5.45973 17.7133 5.31973 17.0483 5.31973 16.255C5.31973 15.3683 5.48306 14.4583 5.80973 13.525C6.15973 12.5917 6.60306 11.6933 7.13973 10.83C7.67639 9.96667 8.27139 9.16167 8.92473 8.415C9.60139 7.66833 10.2781 7.03833 10.9547 6.525C11.7947 5.87167 12.7281 5.35833 13.7547 4.985C14.7814 4.58833 15.8547 4.39 16.9747 4.39C17.8147 4.39 18.6664 4.48333 19.5297 4.67C20.4164 4.83333 21.2331 5.13667 21.9797 5.58C22.1664 5.67333 22.2597 5.81333 22.2597 6C22.0964 6.28 21.8864 6.72333 21.6297 7.33C21.3731 7.91333 21.1631 8.43833 20.9997 8.905L20.6847 9.01Z" fill="#E3E3E3"/>
</svg>
