<svg width="21" height="18" viewBox="0 0 21 18" fill="none" xmlns="http://www.w3.org/2000/svg">
<path d="M15.8031 0.518765C15.7209 0.262069 15.5144 0.0704629 15.261 0.0157214C15.0076 -0.0390202 14.7454 0.051364 14.5728 0.253017L9.45411 6.23167L4.73253 1.15321C4.45273 0.852257 3.9927 0.845573 3.70502 1.13828C3.41734 1.43098 3.41095 1.91223 3.69075 2.21318L8.9551 7.87545C9.09552 8.02649 9.28957 8.10978 9.49093 8.10545C9.69229 8.10112 9.8829 8.00956 10.0173 7.85261L14.8218 2.24089L19.5841 17.1167C19.7116 17.5147 20.1234 17.7294 20.5039 17.5961C20.8845 17.4627 21.0896 17.032 20.9622 16.6339L15.8031 0.518765Z" fill="#E3E3E3"/>
<path d="M4.30269 4.08315C4.12216 3.8769 3.84796 3.791 3.58878 3.85951C3.3296 3.92802 3.12731 4.13986 3.0621 4.41107L0.0221232 17.0542C-0.0757702 17.4614 0.160369 17.8744 0.549555 17.9768C0.938741 18.0792 1.3336 17.8322 1.43149 17.4251L4.14226 6.15107L8.86596 11.5478C9.00408 11.7056 9.19938 11.7952 9.4039 11.7946C9.60843 11.794 9.80324 11.7032 9.94052 11.5446L14.0545 6.7913L17.2349 17.4658C17.3543 17.8666 17.7617 18.0903 18.1449 17.9654C18.528 17.8404 18.7418 17.4143 18.6224 17.0135L15.0634 5.06839C14.9857 4.80791 14.7807 4.61093 14.526 4.55224C14.2713 4.49354 14.006 4.58214 13.831 4.78439L9.39884 9.90536L4.30269 4.08315Z" fill="#E3E3E3"/>
</svg>
