<svg width="198" height="198" viewBox="0 0 198 198" fill="none" xmlns="http://www.w3.org/2000/svg">
<path fill-rule="evenodd" clip-rule="evenodd" d="M50.3051 9.52364C45.8466 4.15131 39.5217 0.500002 30.9692 0.5C22.2921 0.5 15.4284 3.66518 10.4767 8.61681C5.59355 13.4999 2.73899 19.9401 1.59384 26.3599C0.451227 32.7654 0.955629 39.4479 3.12847 44.9845C5.29871 50.5146 9.35286 55.3439 15.4989 56.8806C17.5322 57.3889 21.296 57.5642 25.2201 57.6323C29.3478 57.7039 34.2485 57.6559 38.9247 57.5617C43.6078 57.4674 48.0982 57.3261 51.4156 57.2085C51.8732 57.1922 52.3086 57.1764 52.7192 57.1613V88H34.5C30.3578 88 27 91.3579 27 95.5C27 99.6421 30.3578 103 34.5 103H52.7192V106H52.743L52.2746 140.84C51.8478 140.824 51.3938 140.808 50.9155 140.791C47.5981 140.673 43.1077 140.532 38.4246 140.438C33.7484 140.344 28.8477 140.296 24.72 140.367C20.7958 140.435 17.032 140.611 14.9988 141.119C8.85274 142.656 4.79859 147.485 2.62834 153.015C0.455507 158.552 -0.0488954 165.234 1.09371 171.64C2.23887 178.059 5.09342 184.5 9.97658 189.383C14.9282 194.334 21.792 197.5 30.4691 197.5C39.0215 197.5 45.3465 193.848 49.805 188.476C54.141 183.251 56.6419 176.507 58.1156 170.153C59.6009 163.75 60.1182 157.408 60.2716 152.708C60.3154 151.366 60.3298 150.15 60.3278 149.094L94 149.864V162.5C94 166.642 97.3578 170 101.5 170C105.642 170 109 166.642 109 162.5V149.767L137.641 149.097C137.639 150.151 137.654 151.367 137.697 152.708C137.851 157.408 138.368 163.75 139.853 170.153C141.327 176.507 143.828 183.251 148.164 188.476C152.622 193.848 158.947 197.5 167.5 197.5C176.177 197.5 183.041 194.334 187.992 189.383C192.876 184.5 195.73 178.059 196.875 171.64C198.018 165.234 197.513 158.552 195.341 153.015C193.17 147.485 189.116 142.656 182.97 141.119C180.937 140.611 177.173 140.435 173.249 140.367C169.121 140.296 164.221 140.344 159.544 140.438C154.861 140.532 150.371 140.673 147.053 140.791L146.363 140.816L145.723 140.839L145.502 107.353L145.562 103H162.5C166.642 103 170 99.6421 170 95.5C170 91.3579 166.642 88 162.5 88H145.769L146.193 57.1592C146.62 57.175 147.075 57.1915 147.554 57.2085C150.871 57.3261 155.361 57.4674 160.044 57.5617C164.721 57.6559 169.621 57.7039 173.749 57.6323C177.673 57.5642 181.437 57.3889 183.47 56.8806C189.616 55.3439 193.671 50.5146 195.841 44.9845C198.014 39.4479 198.518 32.7654 197.375 26.3599C196.23 19.9401 193.376 13.4999 188.493 8.61681C183.541 3.66518 176.677 0.5 168 0.5C159.448 0.500002 153.123 4.15131 148.664 9.52364C144.328 14.7484 141.827 21.4927 140.353 27.8462C138.868 34.2495 138.351 40.5917 138.197 45.2914C138.154 46.6326 138.139 47.8481 138.141 48.9028L109 48.2211V34.5C109 30.3579 105.642 27 101.5 27C97.3578 27 94 30.3579 94 34.5V48.1474L60.828 48.9051C60.8299 47.8499 60.8156 46.6335 60.7717 45.2914C60.6183 40.5917 60.101 34.2495 58.6157 27.8462C57.142 21.4927 54.6411 14.7484 50.3051 9.52364ZM137.768 88L138.196 56.9063L109 56.2233V88H137.768ZM94 88V56.1495L60.7192 56.9097V88H94ZM60.7192 103H94V141.861L60.272 141.091L60.7497 105.554L60.7192 105.553V103ZM109 103H137.562L137.506 107.026L137.5 107.026L137.502 107.324L137.5 107.445L137.503 107.445L137.724 141.093L109 141.764V103ZM52.8271 49.1518C52.3056 49.1713 51.7386 49.192 51.1321 49.2135C47.8401 49.3302 43.393 49.4702 38.7637 49.5634C34.1273 49.6567 29.3406 49.7025 25.3589 49.6335C21.1737 49.5609 18.4062 49.3612 17.4394 49.1195C14.5855 48.4059 12.1396 46.0476 10.5755 42.062C9.01398 38.083 8.54963 32.9217 9.46952 27.7648C10.3869 22.6221 12.6261 17.7811 16.1335 14.2737C19.5725 10.8348 24.3962 8.5 30.9692 8.5C36.9167 8.5 41.0605 10.9112 44.1489 14.6326C47.3598 18.5016 49.4839 23.8823 50.8226 29.6538C52.1498 35.3755 52.6325 41.1583 52.776 45.5524C52.8203 46.909 52.832 48.1236 52.8271 49.1518ZM146.142 49.1518C146.664 49.1713 147.231 49.192 147.837 49.2135C151.129 49.3302 155.576 49.4702 160.206 49.5634C164.842 49.6567 169.629 49.7025 173.61 49.6335C177.796 49.5609 180.563 49.3612 181.53 49.1195C184.384 48.4059 186.83 46.0476 188.394 42.062C189.955 38.083 190.42 32.9217 189.5 27.7648C188.582 22.6221 186.343 17.7811 182.836 14.2737C179.397 10.8348 174.573 8.5 168 8.5C162.053 8.5 157.909 10.9112 154.82 14.6326C151.609 18.5016 149.485 23.8823 148.147 29.6538C146.819 35.3755 146.337 41.1583 146.193 45.5524C146.149 46.909 146.137 48.1236 146.142 49.1518ZM52.327 148.848C51.8055 148.828 51.2385 148.808 50.632 148.786C47.34 148.669 42.8929 148.529 38.2635 148.436C33.6272 148.343 28.8404 148.297 24.8587 148.366C20.6735 148.439 17.9061 148.638 16.9393 148.88C14.0854 149.594 11.6395 151.952 10.0754 155.938C8.51386 159.917 8.04951 165.078 8.9694 170.235C9.88674 175.377 12.1259 180.218 15.6334 183.726C19.0724 187.165 23.8961 189.5 30.4691 189.5C36.4166 189.5 40.5604 187.088 43.6488 183.367C46.8596 179.498 48.9837 174.117 50.3225 168.346C51.6497 162.624 52.1324 156.841 52.2759 152.447C52.3202 151.091 52.3318 149.876 52.327 148.848ZM145.642 148.848C146.163 148.828 146.731 148.808 147.337 148.786C150.629 148.669 155.076 148.529 159.705 148.436C164.342 148.343 169.129 148.297 173.11 148.366C177.295 148.439 180.063 148.638 181.03 148.88C183.884 149.594 186.329 151.952 187.894 155.938C189.455 159.917 189.919 165.078 189 170.235C188.082 175.377 185.843 180.218 182.336 183.726C178.897 187.165 174.073 189.5 167.5 189.5C161.552 189.5 157.409 187.088 154.32 183.367C151.109 179.498 148.985 174.117 147.646 168.346C146.319 162.624 145.837 156.841 145.693 152.447C145.649 151.091 145.637 149.876 145.642 148.848Z" fill="#E3E3E3"/>
</svg>
