<svg width="24" height="24" viewBox="0 0 24 24" fill="none" xmlns="http://www.w3.org/2000/svg">
<circle cx="12" cy="12" r="11.75" stroke="#E3E3E3" stroke-width="0.5"/>
<path d="M9.81996 12.51C9.84329 12.65 9.99496 12.755 10.275 12.825C10.555 12.895 10.8816 12.9417 11.255 12.965C11.6516 12.9883 12.06 13 12.48 13C12.9 13 13.25 13 13.53 13C14.2766 13 14.8833 13.0117 15.35 13.035C15.8166 13.035 16.1433 13.0583 16.33 13.105C16.5633 13.175 16.6916 13.21 16.715 13.21C16.7616 13.1867 16.8083 13.0933 16.855 12.93C16.9483 12.4633 17.065 11.8333 17.205 11.04C17.345 10.2467 17.485 9.45333 17.625 8.66C17.765 7.86667 17.8816 7.17833 17.975 6.595C18.0916 5.98833 18.1616 5.63833 18.185 5.545C18.2316 5.35833 18.2316 5.265 18.185 5.265C18.1383 5.24167 18.0216 5.3 17.835 5.44C17.765 5.48667 17.5666 5.65 17.24 5.93C16.9133 6.18667 16.4933 6.525 15.98 6.945C15.49 7.365 14.9416 7.83167 14.335 8.345C13.7516 8.835 13.1683 9.33667 12.585 9.85C12.025 10.34 11.5 10.8183 11.01 11.285C10.52 11.7517 10.1233 12.16 9.81996 12.51ZM0.789961 21.05C0.813294 20.63 0.964961 20.2567 1.24496 19.93C1.54829 19.58 1.94496 19.1717 2.43496 18.705C6.91496 14.5283 10.5316 11.2383 13.285 8.835C16.0383 6.40833 17.8 4.92667 18.57 4.39C18.7566 4.27333 19.0366 4.16833 19.41 4.075C19.7833 3.98167 20.04 3.865 20.18 3.725C20.32 3.585 20.39 3.57333 20.39 3.69C20.4133 3.78333 20.4016 3.87667 20.355 3.97C20.1216 4.32 19.935 4.72833 19.795 5.195C19.655 5.63833 19.5616 6.01167 19.515 6.315C19.4916 6.40833 19.4216 6.72333 19.305 7.26C19.2116 7.77333 19.095 8.415 18.955 9.185C18.815 9.93167 18.6633 10.7483 18.5 11.635C18.36 12.4983 18.22 13.3383 18.08 14.155C17.94 14.9483 17.8233 15.6717 17.73 16.325C17.66 16.955 17.6133 17.3983 17.59 17.655C17.59 18.0517 17.625 18.3667 17.695 18.6C17.7883 18.81 17.8933 18.9733 18.01 19.09C18.1266 19.1833 18.2433 19.2417 18.36 19.265C18.4766 19.2883 18.57 19.3 18.64 19.3C18.7566 19.3 18.8966 19.2883 19.06 19.265C19.2233 19.2183 19.3983 19.1717 19.585 19.125C19.7716 19.0783 19.865 19.09 19.865 19.16C19.8883 19.23 19.8066 19.2883 19.62 19.335C19.5266 19.3583 19.3516 19.405 19.095 19.475C18.8616 19.545 18.5816 19.6267 18.255 19.72C17.9516 19.8133 17.6366 19.9067 17.31 20C17.0066 20.07 16.7383 20.1283 16.505 20.175C16.155 20.175 15.9216 19.9417 15.805 19.475C15.8283 19.335 15.875 19.0433 15.945 18.6C16.015 18.1333 16.085 17.6433 16.155 17.13C16.2483 16.6167 16.33 16.1383 16.4 15.695C16.47 15.2283 16.505 14.925 16.505 14.785C16.505 14.5283 16.3766 14.2717 16.12 14.015C15.8866 13.735 15.5366 13.5367 15.07 13.42C14.9066 13.3733 14.5916 13.3383 14.125 13.315C13.6583 13.2917 13.0983 13.28 12.445 13.28C11.7683 13.28 11.1033 13.28 10.45 13.28C9.79663 13.2567 9.30663 13.2217 8.97996 13.175C7.20663 14.785 5.71329 16.255 4.49996 17.585C3.30996 18.915 2.41163 20.0233 1.80496 20.91C1.61829 21.2133 1.47829 21.4817 1.38496 21.715C1.31496 21.9717 1.25663 22.2983 1.20996 22.695C1.16329 22.835 1.09329 22.87 0.999961 22.8L0.789961 21.05Z" fill="#E3E3E3"/>
</svg>
