<svg width="25" height="24" viewBox="0 0 25 24" fill="none" xmlns="http://www.w3.org/2000/svg">
<circle cx="13" cy="12" r="11.75" stroke="#E3E3E3" stroke-width="0.5"/>
<path d="M1.69187 20.27C1.81187 20.09 1.96187 19.86 2.14188 19.58C2.34187 19.3 2.60187 18.92 2.92188 18.44C3.24187 17.96 3.64187 17.35 4.12187 16.61C4.62187 15.87 5.22187 14.95 5.92188 13.85C5.68187 13.49 5.53187 13.22 5.47187 13.04C5.49187 12.94 5.59187 12.89 5.77187 12.89H6.28187C6.42188 12.89 6.52188 12.81 6.58188 12.65C6.68187 12.47 6.85187 12.15 7.09187 11.69C7.35187 11.23 7.61187 10.74 7.87187 10.22C8.15187 9.7 8.39187 9.21 8.59187 8.75C8.79187 8.29 8.89188 7.98 8.89188 7.82C8.89188 7.58 8.83187 7.43 8.71187 7.37C8.59187 7.31 8.40187 7.28 8.14188 7.28C7.92187 7.28 7.66187 7.29 7.36188 7.31C7.08187 7.31 6.83187 7.33 6.61188 7.37C6.49187 7.37 6.43187 7.31 6.43187 7.19C6.43187 7.07 6.51187 7.01 6.67188 7.01C6.91187 7.01 7.20187 7.01 7.54187 7.01C7.90188 6.99 8.27187 6.97 8.65187 6.95C9.05187 6.91 9.44187 6.88 9.82187 6.86C10.2219 6.82 10.5819 6.79 10.9019 6.77C11.1019 6.77 11.1319 6.9 10.9919 7.16C10.7919 7.44 10.5719 7.76 10.3319 8.12C10.1119 8.48 9.90187 8.83 9.70187 9.17C9.40187 9.69 9.07187 10.28 8.71187 10.94C8.35187 11.6 8.03187 12.2 7.75187 12.74C7.69187 12.84 7.65187 12.92 7.63187 12.98C7.63187 13.04 7.69187 13.07 7.81187 13.07C8.27187 13.09 8.69187 13.11 9.07187 13.13C9.47187 13.13 9.83187 13.13 10.1519 13.13C10.3319 13.13 10.6319 13.12 11.0519 13.1C11.4919 13.08 11.9519 13.06 12.4319 13.04C12.9319 13.02 13.4119 12.99 13.8719 12.95C14.3319 12.91 14.6919 12.88 14.9519 12.86C15.0519 12.84 15.1419 12.8 15.2219 12.74C15.3019 12.68 15.3619 12.61 15.4019 12.53C16.0019 11.37 16.5619 10.31 17.0819 9.35C17.6019 8.39 18.1319 7.47 18.6719 6.59C18.7719 6.45 18.9019 6.34 19.0619 6.26C19.2619 6.14 19.5619 5.99 19.9619 5.81C20.3619 5.63 20.7819 5.46 21.2219 5.3C21.6619 5.12 22.0719 4.97 22.4519 4.85C22.8319 4.73 23.1119 4.67 23.2919 4.67C23.3319 4.67 23.4019 4.68 23.5019 4.7C23.6019 4.72 23.6519 4.76 23.6519 4.82C23.6519 4.86 23.6119 4.89 23.5319 4.91C23.4519 4.93 23.3919 4.94 23.3519 4.94C23.2919 4.94 23.1719 4.96 22.9919 5C22.8119 5.02 22.6119 5.07 22.3919 5.15C22.1719 5.21 21.9419 5.3 21.7019 5.42C21.4819 5.52 21.2819 5.65 21.1019 5.81C20.6219 6.21 20.1719 6.69 19.7519 7.25C19.4719 7.65 19.1819 8.08 18.8819 8.54C18.5819 9 18.2919 9.47 18.0119 9.95C17.7319 10.43 17.4619 10.91 17.2019 11.39C16.9419 11.87 16.7119 12.32 16.5119 12.74C15.7919 14.24 15.2719 15.45 14.9519 16.37C14.6319 17.29 14.4719 17.96 14.4719 18.38C14.4719 19.16 14.8719 19.55 15.6719 19.55C15.9519 19.55 16.2919 19.48 16.6919 19.34C17.1119 19.2 17.4419 19.05 17.6819 18.89C17.7419 18.89 17.7819 18.92 17.8019 18.98C17.8219 19.02 17.7919 19.08 17.7119 19.16C17.3119 19.34 16.8019 19.54 16.1819 19.76C15.5619 19.96 14.8019 20.08 13.9019 20.12C13.5619 20.1 13.3119 19.99 13.1519 19.79C12.9919 19.59 12.9119 19.33 12.9119 19.01C12.9119 18.67 12.9719 18.31 13.0919 17.93C13.2919 17.35 13.5119 16.77 13.7519 16.19C14.0119 15.59 14.2519 15.06 14.4719 14.6C14.5519 14.44 14.5919 14.27 14.5919 14.09C14.5919 13.81 14.4419 13.62 14.1419 13.52C13.8419 13.42 13.5519 13.37 13.2719 13.37C12.7919 13.37 12.2819 13.38 11.7419 13.4C11.2019 13.42 10.6619 13.45 10.1219 13.49C9.60187 13.53 9.10187 13.58 8.62187 13.64C8.14187 13.68 7.73187 13.73 7.39188 13.79C7.27187 13.81 7.17187 13.86 7.09187 13.94C7.01187 14.02 6.93187 14.12 6.85187 14.24C6.39187 15.04 5.88187 15.9 5.32187 16.82C4.78187 17.72 4.33187 18.62 3.97188 19.52C3.93187 19.64 3.89187 19.72 3.85187 19.76C3.81187 19.8 3.71187 19.82 3.55187 19.82C3.37187 19.82 3.21187 19.83 3.07187 19.85C2.93187 19.85 2.80187 19.87 2.68187 19.91C2.56187 19.95 2.43187 20 2.29187 20.06C2.15187 20.12 1.98187 20.21 1.78188 20.33L1.69187 20.27Z" fill="#E3E3E3"/>
</svg>
