<svg width="40" height="32" viewBox="0 0 40 32" fill="none" xmlns="http://www.w3.org/2000/svg">
<path d="M29.5994 0.922248C29.4455 0.4659 29.0588 0.125267 28.5841 0.0279492C28.1094 -0.0693692 27.6184 0.0913137 27.2951 0.449807L17.7077 11.0785L8.86411 2.05014C8.34004 1.51512 7.47839 1.50324 6.93956 2.0236C6.40072 2.54397 6.38876 3.39953 6.91283 3.93455L16.773 14.0008C17.0361 14.2693 17.3995 14.4174 17.7767 14.4097C18.1538 14.402 18.5108 14.2392 18.7625 13.9602L27.7615 3.9838L36.6814 30.4296C36.9201 31.1373 37.6914 31.5189 38.4042 31.2819C39.1169 31.0449 39.5012 30.279 39.2625 29.5713L29.5994 0.922248Z" fill="#E3E3E3"/>
<path d="M8.05902 7.25894C7.72088 6.89227 7.20729 6.73956 6.72184 6.86135C6.2364 6.98314 5.8575 7.35976 5.73537 7.8419L0.0414371 30.3186C-0.141919 31.0424 0.300374 31.7768 1.02933 31.9588C1.75828 32.1409 2.49785 31.7017 2.68121 30.9779L7.75853 10.9352L16.6061 20.5294C16.8648 20.8099 17.2306 20.9692 17.6137 20.9681C17.9967 20.967 18.3616 20.8057 18.6188 20.5238L26.3242 12.0734L32.2813 31.0504C32.5049 31.7629 33.268 32.1605 33.9856 31.9384C34.7032 31.7163 35.1036 30.9587 34.88 30.2461L28.2139 9.01047C28.0685 8.5474 27.6844 8.19721 27.2073 8.09286C26.7303 7.98852 26.2335 8.14603 25.9057 8.50559L17.6042 17.6095L8.05902 7.25894Z" fill="#E3E3E3"/>
</svg>
