<svg width="16" height="16" viewBox="0 0 16 16" fill="none" xmlns="http://www.w3.org/2000/svg">
<path d="M8.97223 2.20312e-07C9.05468 4.38896e-05 9.13444 0.0293693 9.19728 0.0827474C9.26012 0.136125 9.30196 0.210086 9.31533 0.29144L9.65367 2.36277C10.0605 2.48111 10.4485 2.64079 10.8141 2.83967L12.5235 1.61889C12.5904 1.5711 12.6721 1.54857 12.7541 1.55528C12.836 1.562 12.913 1.59753 12.9712 1.65557L14.3246 3.00747C14.3824 3.06534 14.418 3.14174 14.4251 3.22325C14.4322 3.30475 14.4103 3.38615 14.3633 3.45312L13.1608 5.17323C13.3627 5.54096 13.526 5.93107 13.6472 6.34171L15.7099 6.68478C15.791 6.69844 15.8647 6.7404 15.9178 6.80321C15.9709 6.86601 16 6.9456 16 7.02785V8.9409C16.0001 9.02265 15.9715 9.10185 15.9191 9.16459C15.8666 9.22732 15.7938 9.26959 15.7133 9.28397L13.6493 9.64946C13.5287 10.0594 13.3665 10.4498 13.1642 10.8179L14.3817 12.5211C14.4294 12.588 14.452 12.6697 14.4453 12.7516C14.4385 12.8336 14.403 12.9105 14.345 12.9687L12.9923 14.322C12.9345 14.3798 12.8583 14.4154 12.7769 14.4226C12.6956 14.4298 12.6143 14.4081 12.5473 14.3614L10.8236 13.1549C10.4569 13.3549 10.068 13.5158 9.65979 13.6352L9.31533 15.7092C9.30181 15.7905 9.25991 15.8643 9.19709 15.9175C9.13426 15.9708 9.05458 16 8.97223 16H7.05902C6.97716 16.0001 6.89788 15.9714 6.83512 15.9188C6.77237 15.8662 6.73016 15.7932 6.71592 15.7126L6.34701 13.6304C5.94047 13.5092 5.5534 13.346 5.18862 13.1447L3.45342 14.3621C3.38644 14.4091 3.30504 14.4309 3.22352 14.4239C3.14201 14.4168 3.0656 14.3812 3.00773 14.3234L1.65503 12.9694C1.59674 12.911 1.56111 12.8338 1.55451 12.7515C1.54792 12.6693 1.57078 12.5873 1.61902 12.5204L2.85622 10.803C2.65841 10.44 2.49904 10.0553 2.38064 9.65149L0.287389 9.28465C0.206775 9.27041 0.133763 9.22821 0.0811977 9.16546C0.0286331 9.10271 -0.000120163 9.02343 9.53674e-07 8.94158V7.02853C4.3869e-05 6.94609 0.0293732 6.86634 0.0827551 6.8035C0.136138 6.74067 0.210104 6.69883 0.291466 6.68546L2.38132 6.34375C2.50051 5.94046 2.66032 5.55643 2.85826 5.19361L1.63805 3.45516C1.59106 3.38819 1.56919 3.30679 1.57627 3.22529C1.58335 3.14378 1.61894 3.06738 1.67677 3.00951L3.03015 1.65693C3.08857 1.59864 3.16581 1.56301 3.24808 1.55642C3.33034 1.54982 3.41227 1.57269 3.47924 1.62092L5.19202 2.85258C5.55694 2.65211 5.94427 2.48974 6.35176 2.36957L6.71592 0.288044C6.73002 0.207312 6.77216 0.134147 6.83493 0.0814501C6.8977 0.0287533 6.97706 -9.19726e-05 7.05902 2.20312e-07H8.97223ZM8.67601 0.695652H7.35117L7.00467 2.67323C6.99314 2.73956 6.96261 2.80112 6.91679 2.85044C6.87096 2.89976 6.8118 2.93472 6.7465 2.95109C6.23775 3.07785 5.75995 3.2788 5.32382 3.5428C5.26551 3.57813 5.19811 3.59554 5.12998 3.59289C5.06186 3.59023 4.99602 3.56761 4.94064 3.52785L3.31278 2.35802L2.37588 3.29484L3.53495 4.94633C3.57366 5.00142 3.59555 5.06657 3.59796 5.13385C3.60037 5.20114 3.5832 5.26769 3.54854 5.32541C3.28713 5.76051 3.08886 6.23526 2.96221 6.74117C2.94572 6.80706 2.91029 6.86668 2.86031 6.91267C2.81033 6.95867 2.74797 6.98903 2.68093 7L0.695712 7.32473V8.64946L2.68501 8.99864C2.75139 9.01039 2.81293 9.04117 2.86214 9.08724C2.91136 9.13332 2.94612 9.19269 2.96221 9.25815C3.08739 9.76341 3.28578 10.2382 3.54718 10.6732C3.58226 10.7315 3.59949 10.7988 3.59671 10.8668C3.59393 10.9348 3.57128 11.0005 3.53155 11.0557L2.35618 12.6868L3.29308 13.6243L4.94199 12.4674C4.99737 12.4286 5.06284 12.4068 5.13041 12.4046C5.19798 12.4025 5.26471 12.42 5.32246 12.4552C5.75642 12.7192 6.23472 12.9211 6.74174 13.0496C6.80674 13.066 6.86562 13.1008 6.9113 13.1498C6.95698 13.1989 6.98752 13.2601 6.99924 13.3261L7.35049 15.3043H8.67737L9.00484 13.3349C9.01599 13.2679 9.0465 13.2057 9.09262 13.1558C9.13874 13.1059 9.19845 13.0707 9.26437 13.0543C9.77342 12.9289 10.2534 12.7282 10.6925 12.4647C10.7501 12.4302 10.8166 12.4131 10.8837 12.4155C10.9509 12.4179 11.0159 12.4397 11.0709 12.4783L12.7069 13.6243L13.6445 12.6855L12.4882 11.0693C12.4486 11.0139 12.4262 10.9482 12.4237 10.8802C12.4211 10.8122 12.4386 10.745 12.4739 10.6868C12.7403 10.2466 12.9419 9.76668 13.069 9.25543C13.0853 9.19032 13.1201 9.1313 13.1691 9.08549C13.2182 9.03968 13.2795 9.00905 13.3456 8.99728L15.3043 8.64946V7.32269L13.3469 6.99728C13.28 6.98619 13.2178 6.95578 13.1679 6.90979C13.1181 6.8638 13.0828 6.80425 13.0663 6.73845C12.9381 6.22544 12.7366 5.74565 12.4712 5.30639C12.4362 5.24872 12.4187 5.18212 12.4208 5.11469C12.423 5.04727 12.4448 4.98193 12.4834 4.92663L13.6262 3.29348L12.6879 2.35598L11.0662 3.51495C11.011 3.55428 10.9455 3.57665 10.8778 3.57931C10.8101 3.58196 10.7431 3.56479 10.685 3.52989C10.2482 3.26758 9.76715 3.06855 9.25758 2.94361C9.19134 2.92731 9.13136 2.89189 9.08509 2.84176C9.03883 2.79163 9.00832 2.72901 8.99737 2.66168L8.67601 0.695652ZM8 5.21739C9.5328 5.21739 10.7828 6.46733 10.7828 8C10.7828 9.53267 9.5328 10.7826 8 10.7826C6.4672 10.7826 5.21715 9.53267 5.21715 8C5.21715 6.46733 6.4672 5.21739 8 5.21739ZM8 5.91304C6.84319 5.91304 5.91287 6.84329 5.91287 8C5.91287 9.15671 6.84319 10.087 8 10.087C9.15681 10.087 10.0871 9.15671 10.0871 8C10.0871 6.84329 9.15681 5.91304 8 5.91304Z" fill="#656DB6"/>
</svg>
